<svg width="48" height="48" viewBox="0 0 48 48" fill="none" xmlns="http://www.w3.org/2000/svg">
<path d="M33.6 19.2H14.4C12.714 19.2 11.1005 19.5066 9.6 20.039V4.8C9.6 2.14588 7.45412 0 4.8 0C2.15395 0 0 2.14588 0 4.8V33.6C0 41.5543 6.44571 48 14.4 48H33.6C41.5543 48 48 41.5543 48 33.6C48 25.6457 41.5543 19.2 33.6 19.2ZM33.6 38.4H14.3919C11.7378 38.4 9.59193 36.2541 9.59193 33.6C9.59193 30.9459 11.7378 28.8 14.3919 28.8H33.6C36.2541 28.8 38.4 30.9459 38.4 33.6C38.4 36.2541 36.2541 38.4 33.6 38.4Z" fill="#F05A28"/>
</svg>
