<svg width="566" height="113" viewBox="0 0 566 113" fill="none" xmlns="http://www.w3.org/2000/svg">
<path d="M57.0739 32.2857H24.8132C21.983 32.2857 19.2754 32.8029 16.7446 33.6877V8.07143C16.7446 3.62057 13.1389 0 8.676 0C4.22672 0 0.607422 3.60696 0.607422 8.07143V56.4864C0.607422 69.8526 11.4381 80.7007 24.8132 80.7007H57.0875C70.449 80.7007 81.2932 69.8662 81.2932 56.4864C81.2796 43.1202 70.449 32.2857 57.0739 32.2857ZM57.0739 64.5714H24.8132C20.3503 64.5714 16.7446 60.9645 16.7446 56.5C16.7446 52.0355 20.3503 48.4286 24.8132 48.4286H57.0739C61.5232 48.4286 65.1425 52.0355 65.1425 56.5C65.1425 60.9509 61.5368 64.5714 57.0739 64.5714Z" fill="#F05A28"/>
<path d="M153.883 32.2857H121.622C108.261 32.2857 97.4167 43.1202 97.4167 56.5C97.4167 69.8662 108.247 80.7143 121.622 80.7143H153.897C167.258 80.7143 178.102 69.8798 178.102 56.5C178.089 43.1202 167.258 32.2857 153.883 32.2857ZM153.883 64.5714H121.622C117.173 64.5714 113.554 60.9645 113.554 56.5C113.554 52.0355 117.16 48.4286 121.622 48.4286H153.883C158.332 48.4286 161.952 52.0355 161.952 56.5C161.952 60.9509 158.346 64.5714 153.883 64.5714Z" fill="#F05A28"/>
<path d="M266.83 64.5714H218.595C214.146 64.5714 210.526 60.9645 210.526 56.5C210.526 52.0491 214.132 48.4286 218.595 48.4286H266.83C269.102 48.4286 271.156 47.4758 272.626 45.9513C274.027 44.4949 274.898 42.5349 274.898 40.3571C274.898 35.8927 271.293 32.2857 266.83 32.2857H218.581C205.22 32.2857 194.376 43.1202 194.376 56.5C194.376 69.8662 205.206 80.7143 218.581 80.7143H266.816C271.265 80.7143 274.885 77.1073 274.885 72.6429C274.885 70.4651 274.014 68.4914 272.612 67.0487C271.156 65.5242 269.116 64.5714 266.83 64.5714Z" fill="#F05A28"/>
<path d="M371.776 56.9083C371.776 56.7722 371.789 56.6361 371.789 56.5C371.789 43.1338 360.959 32.2857 347.584 32.2857H315.309C312.479 32.2857 309.771 32.8029 307.241 33.6877V8.07143H307.2C307.2 3.60696 303.594 0 299.131 0C294.682 0 291.063 3.60696 291.063 8.07143H291.022V72.6292C291.022 77.0801 294.628 80.7007 299.09 80.7007C301.335 80.7007 303.376 79.7751 304.832 78.2915C306.261 76.8351 307.159 74.8343 307.159 72.6292H307.241V56.5C307.241 52.0355 310.846 48.4286 315.309 48.4286H347.57C351.992 48.4286 355.584 51.9947 355.625 56.4183H355.53V72.0304C355.516 72.2345 355.462 72.4387 355.462 72.6565C355.462 74.9023 356.387 76.9304 357.87 78.4004C359.326 79.8432 361.326 80.7279 363.53 80.7279C367.98 80.7279 371.599 77.1209 371.599 72.6565C371.626 72.6292 371.708 60.5425 371.776 56.9083Z" fill="#F05A28"/>
<path d="M557.299 32.2857C555.054 32.2857 553.013 33.2113 551.557 34.6949C550.128 36.1513 549.23 38.1521 549.23 40.3571H549.148V56.5C549.148 60.9509 545.529 64.5714 541.08 64.5714H508.819C504.397 64.5714 500.805 61.0053 500.764 56.5817H500.859V40.9833C500.873 40.7791 500.927 40.5749 500.927 40.3571C500.927 38.1113 500.002 36.0832 498.519 34.6132C497.063 33.1704 495.063 32.2857 492.859 32.2857C488.396 32.2857 484.79 35.8927 484.79 40.3571H484.641V56.0917C484.641 56.2278 484.627 56.3639 484.627 56.5C484.627 69.8662 495.458 80.7143 508.833 80.7143H541.107C543.937 80.7143 546.645 80.1971 549.176 79.3123V104.929H549.216C549.216 109.379 552.822 113 557.285 113C561.734 113 565.354 109.393 565.354 104.929H565.394V40.3571C565.367 35.8927 561.748 32.2857 557.299 32.2857Z" fill="#F05A28"/>
<path d="M468.68 40.3571H468.53C468.53 35.9063 464.925 32.2857 460.462 32.2857C456.258 32.2857 452.842 35.5252 452.461 39.6221C452.434 39.8671 452.393 40.0985 452.393 40.3435C452.393 40.5885 452.448 40.8335 452.461 41.0649C452.094 45.1755 448.679 48.4013 444.461 48.4013C444.406 48.4013 444.366 48.3877 444.311 48.3877V48.4013H404.023V8.07143H403.982C403.982 3.60696 400.376 0 395.913 0C391.464 0 387.845 3.62057 387.845 8.07143H387.804V72.6292C387.804 77.0937 391.41 80.7007 395.872 80.7007C400.322 80.7007 403.941 77.0801 403.941 72.6292H404.023V64.5578H444.502C448.447 64.5714 451.713 67.4162 452.407 71.1728C452.325 71.6492 452.257 72.1256 452.257 72.6292C452.257 73.1329 452.312 73.6092 452.407 74.0856C453.087 77.8423 456.366 80.7007 460.326 80.7007C464.775 80.7007 468.394 77.0801 468.394 72.6292H468.694C468.694 66.4225 466.34 60.7739 462.489 56.4864C466.326 52.2125 468.68 46.5638 468.68 40.3571Z" fill="#F05A28"/>
</svg>
