<svg width="16" height="14" viewBox="0 0 16 14" fill="none" xmlns="http://www.w3.org/2000/svg">
<path fill-rule="evenodd" clip-rule="evenodd" d="M14.4116 0.137214C13.7814 0.312424 6.66451 2.37152 0.869632 4.03627C0.408366 4.18236 0.0751184 4.55604 0.00972751 4.96674C-0.0556634 5.37745 0.216721 5.72993 0.583547 5.83312C0.896801 5.9289 4.03752 6.8354 4.03752 6.8354L4.13084 12.0952L7.37882 10.1818L4.81568 6.41831L11.2 4.13636L5.83077 7.60805L7.37882 9.92086C7.46961 10.0383 9.36449 12.9238 9.50068 13.1C9.72767 13.3938 10.0745 13.9664 10.2888 13.996C10.6638 14.0479 11.1205 13.5864 11.4038 12.8385C11.679 12.142 13.5433 7.31031 15.937 0.872825C16.2121 0.176309 15.5648 -0.22802 14.4116 0.137214Z" fill="white"/>
</svg>
