<svg width="31" height="22" viewBox="0 0 31 22" fill="none" xmlns="http://www.w3.org/2000/svg">
<path fill-rule="evenodd" clip-rule="evenodd" d="M7.91718 0.294719C12.9645 -0.0982397 18.0349 -0.0982394 23.0821 0.294719L26.4726 0.558684C28.3611 0.705713 29.906 2.11421 30.2182 3.9735C30.9993 8.62559 30.9993 13.3744 30.2182 18.0265C29.906 19.8858 28.3611 21.2943 26.4726 21.4413L23.0821 21.7053C18.0349 22.0982 12.9645 22.0982 7.91718 21.7053L4.52672 21.4413C2.63823 21.2943 1.0933 19.8858 0.781126 18.0265C4.14103e-05 13.3744 4.14103e-05 8.62559 0.781126 3.9735C1.0933 2.11421 2.63823 0.705713 4.52672 0.558684L7.91718 0.294719ZM12.4734 14.7195V7.28052C12.4734 6.92939 12.8583 6.71251 13.1609 6.89316L19.3902 10.6126C19.6841 10.7881 19.6841 11.2119 19.3902 11.3874L13.1609 15.1068C12.8583 15.2875 12.4734 15.0706 12.4734 14.7195Z" fill="white"/>
</svg>
